<svg width="24" height="24" viewBox="0 0 24 24" fill="none" xmlns="http://www.w3.org/2000/svg">
<path d="M17.8403 18.4694C19.8622 16.5823 20.7608 13.4373 20.2216 10.4269H12.1792V13.7518H16.762C16.5823 14.8301 15.9533 15.7286 15.0547 16.3128L17.8403 18.4694Z" fill="#4285F4"/>
<path d="M4.54102 15.8185C4.61464 15.9634 4.69227 16.1062 4.77389 16.2468C4.85558 16.3874 4.94114 16.5255 5.03058 16.6613C5.12008 16.7969 5.21327 16.9301 5.31027 17.0605C5.40727 17.191 5.50783 17.3186 5.61208 17.4434C5.71627 17.5681 5.82389 17.6899 5.93502 17.8086C6.04608 17.9273 6.16045 18.0427 6.27808 18.1549C6.3957 18.2671 6.51639 18.3759 6.64014 18.4814C6.76389 18.5868 6.89052 18.6886 7.02008 18.7868C7.14958 18.8851 7.28177 18.9796 7.41664 19.0703C7.55152 19.1611 7.68883 19.2479 7.82864 19.3309C7.96839 19.4139 8.11039 19.4929 8.25464 19.5679C8.39889 19.6429 8.54514 19.7138 8.69339 19.7804C8.84164 19.8471 8.99164 19.9096 9.14345 19.9678C9.2952 20.0261 9.44852 20.0799 9.60333 20.1295C9.75814 20.1791 9.91427 20.2243 10.0716 20.2649C10.229 20.3057 10.3874 20.3419 10.5468 20.3738C10.7063 20.4055 10.8665 20.4328 11.0275 20.4555C11.1884 20.4782 11.3499 20.4964 11.5119 20.5099C11.6739 20.5235 11.8361 20.5326 11.9986 20.5369C12.1611 20.5414 12.3236 20.5412 12.4861 20.5364C12.6486 20.5317 12.8108 20.5223 12.9728 20.5084C13.1348 20.4944 13.2962 20.4759 13.4571 20.4529C13.6181 20.4298 13.7782 20.4022 13.9376 20.3701C14.097 20.3379 14.2553 20.3014 14.4125 20.2603C14.5698 20.2193 14.7258 20.1738 14.8806 20.1239C15.0353 20.074 15.1885 20.0198 15.3401 19.9612C15.4918 19.9026 15.6416 19.8399 15.7898 19.7728C15.9379 19.7058 16.084 19.6347 16.228 19.5594C16.3721 19.4841 16.514 19.4048 16.6536 19.3215C16.7931 19.2382 16.9303 19.151 17.065 19.06C17.1996 18.9689 17.3316 18.8741 17.461 18.7756C17.5903 18.6771 17.7167 18.575 17.8402 18.4694L15.0546 16.3128C12.6733 17.8853 8.71952 17.3012 7.37158 13.6169L4.54102 15.8185Z" fill="#34A853"/>
<path d="M7.37144 13.6169C7.012 12.4937 7.012 11.4603 7.37144 10.3371L4.54087 8.1355C3.5075 10.2023 3.193 13.1227 4.54087 15.8185L7.37144 13.6169Z" fill="#FBBC02"/>
<path d="M7.37158 10.3371C8.36008 7.23693 12.5835 5.43975 15.414 8.09056L17.8851 5.66437C14.3806 2.29468 7.55133 2.42943 4.54102 8.1355L7.37158 10.3371Z" fill="#EA4335"/>
</svg>
