<svg width="159" height="38" viewBox="0 0 159 38" fill="none" xmlns="http://www.w3.org/2000/svg">
<rect width="40.1359" height="37.0485" rx="10.8058" fill="#9f9ddb"/>
<path d="M18.3991 24.2318H10.8057V10.8332H29.6243V15.6066H18.3991V17.0923H29.019V21.0404H18.3991V24.2318Z" fill="white" stroke="white" stroke-width="0.0275126"/>
<ellipse cx="14.6023" cy="28.8677" rx="3.78298" ry="3.67293" fill="white"/>
<path d="M52.1321 18.3316V20.2888H62.602V24.0321H52.1321V27.7184H45.8996V14.1513H63.1721V18.3316H52.1321ZM84.1496 27.7184H76.948L74.7438 24.2601H70.3544V27.7184H64.1218V14.1513H77.9931C80.0832 14.1513 81.5717 14.544 82.4584 15.3294C83.3579 16.1021 83.8076 17.2865 83.8076 18.8827C83.8076 20.0481 83.5542 20.9349 83.0475 21.5429C82.5408 22.151 81.8251 22.569 80.9003 22.797V22.987L84.1496 27.7184ZM75.5228 20.6688C76.4096 20.6688 76.853 20.2951 76.853 19.5477C76.853 18.8003 76.4096 18.4266 75.5228 18.4266H70.3544V20.6688H75.5228ZM98.8009 26.1413H91.3523L90.5922 27.7184H83.8086L90.8582 14.1513H99.352L106.345 27.7184H99.58L98.8009 26.1413ZM97.0528 22.588L95.1336 18.7117H95.0196L93.1194 22.588H97.0528ZM130.461 27.7184H124.228V19.3007H124.076L120.637 27.7184H116.209L112.732 19.2437H112.561V27.7184H106.709V14.1513H115.924L118.357 20.5928H118.509L120.903 14.1513H130.461V27.7184ZM144.911 14.1513C146.393 14.1513 147.571 14.3349 148.445 14.7023C149.332 15.0697 149.971 15.6207 150.364 16.3555C150.757 17.0902 150.953 18.0403 150.953 19.2057C150.953 20.3458 150.757 21.2832 150.364 22.0179C149.971 22.74 149.332 23.2847 148.445 23.6521C147.571 24.0068 146.393 24.1841 144.911 24.1841H137.918V27.7184H131.685V14.1513H144.911ZM142.63 20.5358C143.124 20.5358 143.498 20.4345 143.751 20.2318C144.005 20.0164 144.131 19.6997 144.131 19.2817C144.131 18.4456 143.631 18.0276 142.63 18.0276H137.918V20.5358H142.63Z" fill="white"/>
<circle cx="154.892" cy="17.1767" r="2.94601" fill="white"/>
</svg> 