<?xml version="1.0" encoding="UTF-8"?>
<svg version="1.1" xmlns="http://www.w3.org/2000/svg" width="3264" height="3264">
<path d="M0 0 C1077.12 0 2154.24 0 3264 0 C3264 1077.12 3264 2154.24 3264 3264 C2186.88 3264 1109.76 3264 0 3264 C0 2186.88 0 1109.76 0 0 Z " fill="#1E1D2F" transform="translate(0,0)"/>
<path d="M0 0 C373.89 0 747.78 0 1133 0 C1133 93.72 1133 187.44 1133 284 C907.94 284 682.88 284 451 284 C451 314.36 451 344.72 451 376 C663.85 376 876.7 376 1096 376 C1096 453.88 1096 531.76 1096 612 C883.15 612 670.3 612 451 612 C451 675.69 451 739.38 451 805 C302.17 805 153.34 805 0 805 C0 539.35 0 273.7 0 0 Z " fill="#F6F6F6" transform="translate(1071,1178)"/>
<path d="M0 0 C0.91427261 -0.00315216 1.82854523 -0.00630432 2.77052307 -0.009552 C4.2471769 -0.00651566 4.2471769 -0.00651566 5.75366211 -0.00341797 C7.27170692 -0.00485306 7.27170692 -0.00485306 8.82041931 -0.00631714 C10.95970726 -0.0069977 13.09899727 -0.00515203 15.23828125 -0.00097656 C18.52144989 0.00437894 21.80448208 -0.0009286 25.08764648 -0.00732422 C27.16381866 -0.00666352 29.23999076 -0.00538254 31.31616211 -0.00341797 C32.79585228 -0.00645432 32.79585228 -0.00645432 34.30543518 -0.009552 C35.21655563 -0.00639984 36.12767609 -0.00324768 37.06640625 0 C37.87010147 0.00079559 38.67379669 0.00159119 39.50184631 0.00241089 C41.46850586 0.12939453 41.46850586 0.12939453 43.46850586 1.12939453 C45.16824706 1.32389228 46.86876133 1.51327942 48.57202148 1.67407227 C56.50446224 2.43285101 64.20062625 3.79416378 71.96850586 5.56689453 C72.87503906 5.77217773 73.78157227 5.97746094 74.71557617 6.18896484 C79.7545173 7.3714413 84.64080152 8.76983527 89.52099609 10.49609375 C92.13111154 11.3448639 94.75084116 11.78097598 97.46850586 12.12939453 C97.46850586 12.78939453 97.46850586 13.44939453 97.46850586 14.12939453 C98.58225586 14.41814453 99.69600586 14.70689453 100.84350586 15.00439453 C104.46850586 16.12939453 104.46850586 16.12939453 106.46850586 18.12939453 C107.80037572 18.46852806 109.13411856 18.80030577 110.46850586 19.12939453 C112.8282692 20.13342845 115.14908835 21.16470371 117.46850586 22.25439453 C118.13205078 22.56570312 118.7955957 22.87701172 119.47924805 23.19775391 C125.69132406 26.15929039 131.60792974 29.52226262 137.46850586 33.12939453 C138.82008789 33.9434375 138.82008789 33.9434375 140.19897461 34.77392578 C150.02292262 40.82706546 159.17185954 47.87973309 167.74584961 55.59814453 C169.44369786 57.10734298 171.1933739 58.52508387 172.96850586 59.94189453 C174.20600586 61.02470703 174.20600586 61.02470703 175.46850586 62.12939453 C175.46850586 62.78939453 175.46850586 63.44939453 175.46850586 64.12939453 C176.12850586 64.12939453 176.78850586 64.12939453 177.46850586 64.12939453 C178.94897461 65.63330078 178.94897461 65.63330078 180.65600586 67.69189453 C183.07647006 70.54693059 185.54345958 73.26114328 188.21850586 75.87939453 C190.53297309 78.16265546 192.72615696 80.36213451 194.46850586 83.12939453 C194.46850586 83.78939453 194.46850586 84.44939453 194.46850586 85.12939453 C195.12850586 85.12939453 195.78850586 85.12939453 196.46850586 85.12939453 C199.06983663 88.25675618 201.22157232 91.74216325 203.46850586 95.12939453 C204.06550293 96.02005615 204.06550293 96.02005615 204.67456055 96.92871094 C205.9274863 98.80224933 207.16855663 100.68310454 208.40600586 102.56689453 C208.80762939 103.16969238 209.20925293 103.77249023 209.62304688 104.39355469 C212.46850586 108.78270147 212.46850586 108.78270147 212.46850586 112.12939453 C213.45850586 112.12939453 214.44850586 112.12939453 215.46850586 112.12939453 C215.86038086 113.07814453 216.25225586 114.02689453 216.65600586 115.00439453 C217.97286669 118.09371258 219.43912333 121.07743683 220.96850586 124.06689453 C223.13639369 128.33737237 224.83323394 132.63239674 226.46850586 137.12939453 C226.79850586 137.45939453 227.12850586 137.78939453 227.46850586 138.12939453 C227.50914418 139.79556568 227.51122686 141.46327548 227.46850586 143.12939453 C228.12850586 143.12939453 228.78850586 143.12939453 229.46850586 143.12939453 C230.14461009 145.02188272 230.80901025 146.91855473 231.46850586 148.81689453 C231.83975586 149.87263672 232.21100586 150.92837891 232.59350586 152.01611328 C233.40769156 154.91301509 233.64560382 157.14640076 233.46850586 160.12939453 C234.45850586 159.79939453 235.44850586 159.46939453 236.46850586 159.12939453 C236.58967773 159.98662109 236.71084961 160.84384766 236.83569336 161.72705078 C237.87647866 168.90545241 237.87647866 168.90545241 239.59350586 175.94189453 C240.66579433 179.84808825 240.61018985 183.09140081 240.46850586 187.12939453 C241.12850586 187.12939453 241.78850586 187.12939453 242.46850586 187.12939453 C242.75864959 191.59074027 243.04320086 196.05240055 243.32299805 200.5144043 C243.41853828 202.02621634 243.51549796 203.53793948 243.61401367 205.04956055 C245.1879372 229.24461963 244.45691348 252.89867647 238.37866211 276.50439453 C237.64481911 279.42716835 237.12375319 282.14008962 236.84350586 285.12939453 C236.76874023 285.89251953 236.69397461 286.65564453 236.61694336 287.44189453 C236.56795898 287.99876953 236.51897461 288.55564453 236.46850586 289.12939453 C235.80850586 289.12939453 235.14850586 289.12939453 234.46850586 289.12939453 C234.28674805 289.85384766 234.10499023 290.57830078 233.91772461 291.32470703 C232.54044055 296.6219534 231.0072643 301.26344085 228.46850586 306.12939453 C228.03510397 307.45738237 227.62035779 308.79152163 227.21850586 310.12939453 C225.07153155 316.80637222 221.70621143 322.93249569 218.46850586 329.12939453 C217.9825293 330.07041016 217.49655273 331.01142578 216.99584961 331.98095703 C212.933851 339.65236388 208.2667148 346.90462658 203.46850586 354.12939453 C202.78788086 355.15677734 202.10725586 356.18416016 201.40600586 357.24267578 C197.89372358 362.41597489 197.89372358 362.41597489 196.46850586 364.12939453 C195.80850586 364.12939453 195.14850586 364.12939453 194.46850586 364.12939453 C194.23776367 364.85255859 194.00702148 365.57572266 193.76928711 366.32080078 C192.22038951 369.66511722 190.32375446 371.53513311 187.65600586 374.06689453 C184.75961338 376.86297905 181.9669319 379.59572377 179.46850586 382.75439453 C178.80850586 383.53814453 178.14850586 384.32189453 177.46850586 385.12939453 C176.80850586 385.12939453 176.14850586 385.12939453 175.46850586 385.12939453 C175.46850586 385.78939453 175.46850586 386.44939453 175.46850586 387.12939453 C173.91962084 388.54645955 172.30089052 389.88748949 170.65600586 391.19189453 C169.64924805 391.99626953 168.64249023 392.80064453 167.60522461 393.62939453 C167.08234863 394.04447266 166.55947266 394.45955078 166.02075195 394.88720703 C163.64327424 396.7897875 161.31020025 398.74555114 158.96850586 400.69189453 C149.9011141 408.07918965 140.59538261 414.4933677 130.34057617 420.09863281 C128.39048223 421.17235434 126.45698117 422.27270659 124.52319336 423.37548828 C123.21386079 424.10696617 121.90397882 424.83746167 120.59350586 425.56689453 C119.99957031 425.90914062 119.40563477 426.25138672 118.79370117 426.60400391 C114.2701839 429.0759538 110.5205195 429.73522643 105.46850586 430.12939453 C105.13850586 431.11939453 104.80850586 432.10939453 104.46850586 433.12939453 C102.1000081 434.1090506 99.85086279 434.90039536 97.40600586 435.62939453 C91.34145609 437.50871722 91.34145609 437.50871722 85.40600586 439.75439453 C80.56537078 441.6476207 75.43027893 442.47839794 70.34741211 443.48095703 C67.58634624 443.83340391 67.58634624 443.83340391 66.46850586 445.12939453 C62.84677844 445.45535 59.22395376 445.64319989 55.59350586 445.84814453 C52.60352576 445.78074901 52.60352576 445.78074901 51.46850586 447.12939453 C40.44295333 448.95606798 29.41589431 449.47641729 18.25683594 449.44506836 C15.9030996 449.44189061 13.55060583 449.46556761 11.19702148 449.49072266 C2.10517863 449.52700007 -6.34430559 448.7177918 -15.24023438 446.81738281 C-17.87119437 446.26742025 -20.35767375 445.8800297 -23.03149414 445.69189453 C-29.98930729 445.06555519 -36.79708558 442.9059563 -43.53149414 441.12939453 C-43.53149414 440.46939453 -43.53149414 439.80939453 -43.53149414 439.12939453 C-44.50086914 439.15001953 -45.47024414 439.17064453 -46.46899414 439.19189453 C-49.53149414 439.12939453 -49.53149414 439.12939453 -50.53149414 438.12939453 C-52.85967378 437.76178722 -55.19333264 437.42697872 -57.53149414 437.12939453 C-57.53149414 436.46939453 -57.53149414 435.80939453 -57.53149414 435.12939453 C-60.83149414 434.46939453 -64.13149414 433.80939453 -67.53149414 433.12939453 C-67.53149414 432.46939453 -67.53149414 431.80939453 -67.53149414 431.12939453 C-68.17860352 431.05720703 -68.82571289 430.98501953 -69.49243164 430.91064453 C-73.75563779 429.81470465 -77.31722082 427.74558102 -81.15649414 425.62939453 C-82.66842324 424.80447376 -84.18140309 423.98147514 -85.69555664 423.16064453 C-86.36022949 422.79519531 -87.02490234 422.42974609 -87.7097168 422.05322266 C-89.6785877 420.99868108 -89.6785877 420.99868108 -92.53149414 420.12939453 C-92.53149414 419.46939453 -92.53149414 418.80939453 -92.53149414 418.12939453 C-93.12961914 417.98501953 -93.72774414 417.84064453 -94.34399414 417.69189453 C-96.09299819 417.24215063 -97.81826437 416.70047112 -99.53149414 416.12939453 C-99.53149414 415.46939453 -99.53149414 414.80939453 -99.53149414 414.12939453 C-100.39387695 413.89349609 -101.25625977 413.65759766 -102.14477539 413.41455078 C-105.87258431 411.99996124 -108.65342041 410.04073469 -111.71899414 407.56689453 C-112.27925293 407.12506836 -112.83951172 406.68324219 -113.41674805 406.22802734 C-115.12983983 404.8716885 -116.83204397 403.50277295 -118.53149414 402.12939453 C-120.03776367 400.91703125 -120.03776367 400.91703125 -121.57446289 399.68017578 C-124.24136901 397.51354446 -126.88943497 395.32621002 -129.53149414 393.12939453 C-130.63944336 392.22640625 -130.63944336 392.22640625 -131.76977539 391.30517578 C-133.39610827 389.95913274 -134.97096847 388.55120681 -136.53149414 387.12939453 C-136.53149414 386.46939453 -136.53149414 385.80939453 -136.53149414 385.12939453 C-137.35907227 384.80455078 -137.35907227 384.80455078 -138.20336914 384.47314453 C-141.28993946 382.69163414 -143.43832922 380.26263432 -145.78149414 377.62939453 C-146.26674561 377.09040527 -146.75199707 376.55141602 -147.25195312 375.99609375 C-175.53149414 344.33159859 -175.53149414 344.33159859 -175.53149414 333.12939453 C-176.52149414 332.79939453 -177.51149414 332.46939453 -178.53149414 332.12939453 C-181.95868759 326.5512802 -184.58931409 320.42084888 -186.75415039 314.24658203 C-187.74850697 311.53833447 -188.89466825 308.90586381 -190.03149414 306.25439453 C-192.01415808 301.56863922 -193.57614032 296.91471262 -194.85571289 291.99267578 C-195.36309372 289.92677992 -195.36309372 289.92677992 -197.53149414 289.12939453 C-198.05883789 286.86376953 -198.05883789 286.86376953 -198.46899414 283.87939453 C-199.47205756 277.2030044 -200.94464075 270.68838854 -202.53149414 264.12939453 C-202.86149414 264.12939453 -203.19149414 264.12939453 -203.53149414 264.12939453 C-203.59208008 262.98599609 -203.65266602 261.84259766 -203.71508789 260.66455078 C-203.79947842 259.17365148 -203.88412716 257.68276678 -203.96899414 256.19189453 C-204.00831055 255.43714844 -204.04762695 254.68240234 -204.08813477 253.90478516 C-203.97187438 250.20995266 -203.97187438 250.20995266 -205.53149414 247.12939453 C-205.64568444 244.76671091 -205.69543231 242.43453789 -205.69946289 240.07080078 C-205.70351639 239.34261642 -205.70756989 238.61443207 -205.71174622 237.86418152 C-205.72127726 235.47337567 -205.72113252 233.08271695 -205.71899414 230.69189453 C-205.71971924 229.88393433 -205.72044434 229.07597412 -205.72119141 228.24353027 C-205.71975685 213.79537881 -204.98588286 199.51082338 -203.53149414 185.12939453 C-203.20149414 185.12939453 -202.87149414 185.12939453 -202.53149414 185.12939453 C-199.27496153 173.15012269 -199.27496153 173.15012269 -197.80493164 160.85205078 C-197.71469727 160.28357422 -197.62446289 159.71509766 -197.53149414 159.12939453 C-196.87149414 158.79939453 -196.21149414 158.46939453 -195.53149414 158.12939453 C-194.57134972 155.61265234 -193.71105431 153.13259948 -192.90649414 150.56689453 C-192.67704102 149.85597656 -192.44758789 149.14505859 -192.21118164 148.41259766 C-191.64455206 146.653685 -191.08715156 144.89180414 -190.53149414 143.12939453 C-189.87149414 143.12939453 -189.21149414 143.12939453 -188.53149414 143.12939453 C-188.59981445 142.27216797 -188.66813477 141.41494141 -188.73852539 140.53173828 C-188.48975263 136.44341615 -187.26474911 134.22008064 -185.21899414 130.69189453 C-182.33303228 125.66080583 -182.33303228 125.66080583 -179.96899414 120.37939453 C-178.36321816 116.74894449 -176.32277918 113.7224869 -174.07836914 110.46142578 C-172.56092729 108.17376723 -171.21891316 105.85204674 -169.90649414 103.44189453 C-167.94776412 99.85193919 -165.97413728 96.41432841 -163.53149414 93.12939453 C-162.87149414 93.12939453 -162.21149414 93.12939453 -161.53149414 93.12939453 C-161.24274414 92.36626953 -160.95399414 91.60314453 -160.65649414 90.81689453 C-159.53149414 88.12939453 -159.53149414 88.12939453 -157.53149414 85.12939453 C-156.87149414 85.12939453 -156.21149414 85.12939453 -155.53149414 85.12939453 C-155.26594727 84.54544922 -155.00040039 83.96150391 -154.72680664 83.35986328 C-153.49494842 81.06119974 -152.14969437 79.3756306 -150.40649414 77.44189453 C-149.48416992 76.41515625 -149.48416992 76.41515625 -148.54321289 75.36767578 C-147.8793457 74.62904297 -147.21547852 73.89041016 -146.53149414 73.12939453 C-145.81606445 72.29794922 -145.10063477 71.46650391 -144.36352539 70.60986328 C-143.30198242 69.38203125 -143.30198242 69.38203125 -142.21899414 68.12939453 C-141.56286133 67.36626953 -140.90672852 66.60314453 -140.23071289 65.81689453 C-138.53149414 64.12939453 -138.53149414 64.12939453 -136.53149414 64.12939453 C-136.53149414 63.46939453 -136.53149414 62.80939453 -136.53149414 62.12939453 C-135.16821289 60.71923828 -135.16821289 60.71923828 -133.21899414 59.06689453 C-132.48165039 58.44169922 -131.74430664 57.81650391 -130.98461914 57.17236328 C-130.17508789 56.49818359 -129.36555664 55.82400391 -128.53149414 55.12939453 C-127.72196289 54.44490234 -126.91243164 53.76041016 -126.07836914 53.05517578 C-115.88442342 44.55513421 -105.38443723 36.18659707 -93.53149414 30.12939453 C-92.78899414 29.70916016 -92.04649414 29.28892578 -91.28149414 28.85595703 C-84.97877358 25.29098071 -78.49825386 22.12770585 -71.96899414 19.00439453 C-71.0946875 18.58456299 -70.22038086 18.16473145 -69.31958008 17.73217773 C-59.66637584 13.15260643 -50.44896087 9.62785674 -39.96899414 7.44189453 C-38.00868838 7.02445725 -36.04901143 6.60405207 -34.09008789 6.18017578 C-33.23729248 6.00139893 -32.38449707 5.82262207 -31.50585938 5.63842773 C-29.54354568 5.31083991 -29.54354568 5.31083991 -28.53149414 4.12939453 C-27.01058403 3.84480591 -25.47928524 3.6151802 -23.94555664 3.41064453 C-23.01485352 3.28302734 -22.08415039 3.15541016 -21.12524414 3.02392578 C-20.14555664 2.89373047 -19.16586914 2.76353516 -18.15649414 2.62939453 C-16.23166738 2.37155965 -14.30717026 2.11124847 -12.38305664 1.84814453 C-11.52534668 1.7340625 -10.66763672 1.61998047 -9.78393555 1.50244141 C-0.71653583 0.00070861 -0.71653583 0.00070861 0 0 Z " fill="#F6F6F6" transform="translate(1280.531494140625,2034.87060546875)"/>
<path d="M0 0 C0.66 0.33 1.32 0.66 2 1 C2.06861759 37.12884282 2.12150408 73.25767424 2.15319599 109.38656877 C2.15694826 113.64874452 2.16083121 117.91092014 2.16479492 122.1730957 C2.16558185 123.02164337 2.16636878 123.87019103 2.16717956 124.74445226 C2.18024514 138.49674726 2.2039053 152.24900476 2.23145839 166.00127748 C2.25948058 180.1049744 2.2761695 194.20865163 2.28226548 208.31237525 C2.28638856 217.02008163 2.29942612 225.72768203 2.3237494 234.4353558 C2.3395673 240.40082125 2.34440935 246.36623166 2.34050413 252.33171657 C2.3385764 255.77713935 2.341599 259.22237652 2.35761642 262.66776657 C2.37244211 266.39782764 2.3689897 270.12742744 2.36076355 273.85749817 C2.36950207 274.95378896 2.3782406 276.05007975 2.38724393 277.17959148 C2.38127078 278.17484897 2.37529764 279.17010646 2.36914349 280.19552326 C2.37028265 281.05710869 2.37142181 281.91869412 2.37259549 282.8063882 C1.9039396 285.56554423 1.18662982 286.28956676 -1 288 C-3.16024576 288.37401349 -3.16024576 288.37401349 -5.72636336 288.37259549 C-6.70639552 288.37933737 -7.68642768 288.38607925 -8.69615778 288.39302543 C-10.31836205 288.38120387 -10.31836205 288.38120387 -11.97333813 288.36914349 C-13.12320539 288.37260502 -14.27307266 288.37606655 -15.45778438 288.37963298 C-18.66882168 288.38623633 -21.87951057 288.37928755 -25.09052022 288.36679858 C-28.57642657 288.35652488 -32.06230323 288.36360282 -35.54821521 288.36853105 C-41.66401637 288.37476331 -47.77973014 288.36980223 -53.89552116 288.35761642 C-62.98952886 288.33954667 -72.08348121 288.33860571 -81.17750359 288.34124239 C-96.47342636 288.3451887 -111.76931032 288.33514243 -127.06522179 288.31719017 C-142.2155546 288.29945425 -157.36587125 288.2878954 -172.51621437 288.28463173 C-173.92789924 288.2843224 -173.92789924 288.2843224 -175.36810299 288.28400682 C-180.1473666 288.28299186 -184.92663022 288.28208769 -189.70589385 288.2812262 C-223.57941225 288.27492077 -257.45290952 288.25469703 -291.32641602 288.22631836 C-324.23917529 288.19877636 -357.15192878 288.17751999 -390.06469727 288.16479492 C-391.07876665 288.16440034 -392.09283604 288.16400576 -393.1376348 288.16359923 C-403.32110444 288.15964375 -413.50457413 288.1558163 -423.68804386 288.15208265 C-444.43394138 288.1444735 -465.17983851 288.13600974 -485.92573547 288.12702942 C-487.35660814 288.12641161 -487.35660814 288.12641161 -488.81638732 288.12578133 C-538.19196464 288.10438663 -587.56753219 288.07030292 -636.94309998 288.0333252 C-637.63784458 288.03280498 -638.33258919 288.03228477 -639.04838666 288.03174879 C-652.69892471 288.02150467 -666.34946229 288.01069867 -680 288 C-679.67 316.38 -679.34 344.76 -679 374 C-362.2 374.495 -362.2 374.495 -39 375 C-39 375.33 -39 375.66 -39 376 C-251.19 376 -463.38 376 -682 376 C-682 345.97 -682 315.94 -682 285 C-456.94 285 -231.88 285 0 285 C0 190.95 0 96.9 0 0 Z " fill="#04030E" transform="translate(2205,1177)"/>
<path d="M0 0 C213.18 0 426.36 0 646 0 C646 0.66 646 1.32 646 2 C433.81 2 221.62 2 3 2 C3 64.37 3 126.74 3 191 C2.34 191.33 1.68 191.66 1 192 C0.67 128.64 0.34 65.28 0 0 Z " fill="#010007" transform="translate(1522,1790)"/>
<path d="M0 0 C0.33 0 0.66 0 1 0 C1 76.89 1 153.78 1 233 C0.01 233 -0.98 233 -2 233 C-1.67 232.01 -1.34 231.02 -1 230 C-0.89364662 226.96188743 -0.8451354 223.94612648 -0.84178162 220.907547 C-0.83684364 219.96576668 -0.83190566 219.02398636 -0.82681805 218.05366725 C-0.8114079 214.88449418 -0.8030729 211.71534143 -0.79467773 208.54614258 C-0.78510198 206.2797172 -0.77509208 204.01329363 -0.76467896 201.74687195 C-0.73759108 195.58196842 -0.71660255 189.41705721 -0.69667697 183.25212693 C-0.67484134 176.8138782 -0.64744082 170.37565326 -0.62062073 163.93742371 C-0.57634237 153.12731925 -0.53551266 142.31720755 -0.49731445 131.50708008 C-0.45795851 120.37197924 -0.41653205 109.23688928 -0.37231445 98.10180664 C-0.36959018 97.41558583 -0.36686591 96.72936502 -0.36405908 96.02234963 C-0.35037959 92.57982501 -0.33665932 89.13730056 -0.32291877 85.69477618 C-0.20895714 57.12987359 -0.10222039 28.56494688 0 0 Z " fill="#0F0E20" transform="translate(2169,1557)"/>
<path d="M0 0 C0.33 0.66 0.66 1.32 1 2 C2.010625 1.95875 3.02125 1.9175 4.0625 1.875 C8.18076052 2.00573843 11.11830533 2.73250786 15 4 C15 4.66 15 5.32 15 6 C15.78375 5.938125 16.5675 5.87625 17.375 5.8125 C20.56008659 5.97724586 22.5499663 6.42046702 25.51171875 7.41015625 C31.09988326 9.13819652 36.64208268 9.9344154 42.4375 10.625 C44.37401072 10.86467348 46.31022577 11.1067517 48.24609375 11.3515625 C49.08841553 11.45291504 49.9307373 11.55426758 50.79858398 11.65869141 C53 12 53 12 56 13 C58.60546301 13.1091572 61.18321327 13.16405276 63.7890625 13.16796875 C64.95409805 13.17296135 64.95409805 13.17296135 66.14266968 13.17805481 C67.79530243 13.18312246 69.44794543 13.18546318 71.10058594 13.18530273 C73.56724361 13.18744973 76.0334239 13.2054944 78.5 13.22460938 C89.09454682 13.26201818 99.53689918 12.76394746 110 11 C110.33 10.67 110.66 10.34 111 10 C113.28708805 9.76310213 115.58043148 9.58530963 117.875 9.4375 C119.13054687 9.35371094 120.38609375 9.26992187 121.6796875 9.18359375 C123.78413234 9.06723033 125.89234051 9 128 9 C128 9.66 128 10.32 128 11 C126.65808594 11.05607422 126.65808594 11.05607422 125.2890625 11.11328125 C123.47535156 11.21189453 123.47535156 11.21189453 121.625 11.3125 C120.44164062 11.37050781 119.25828125 11.42851562 118.0390625 11.48828125 C114.9749166 11.75790358 112.37284013 12.50353676 109.47070312 13.50927734 C103.73415626 15.26288495 98.39356573 15.4174617 92.4296875 15.36328125 C91.34978546 15.36377975 90.26988342 15.36427826 89.15725708 15.36479187 C86.88313956 15.36246404 84.60901884 15.35281242 82.33496094 15.33618164 C78.90535663 15.31270778 75.47653876 15.31561708 72.046875 15.32226562 C56.70289331 15.30221796 42.01133994 14.39198547 27 11 C27 10.34 27 9.68 27 9 C25.453125 9.061875 25.453125 9.061875 23.875 9.125 C20.13170373 9.00424851 17.46265453 8.35127982 14 7 C14 6.34 14 5.68 14 5 C11.36 5 8.72 5 6 5 C6 4.34 6 3.68 6 3 C4.02 3 2.04 3 0 3 C0 2.01 0 1.02 0 0 Z " fill="#4C4B58" transform="translate(1222,2470)"/>
<path d="M0 0 C-2.7865517 2.7865517 -5.15424427 2.65662895 -9 3 C-9.66 2.67 -10.32 2.34 -11 2 C-11.33 2.66 -11.66 3.32 -12 4 C-12.64582031 3.8246875 -13.29164062 3.649375 -13.95703125 3.46875 C-17.92136478 2.85806961 -21.7115991 3.20611875 -25.6875 3.5 C-38.14896343 4.29272298 -50.54400497 3.64807619 -63 3 C-63.33 2.34 -63.66 1.68 -64 1 C-56.97489031 0.85573461 -49.94974053 0.71355443 -42.92456055 0.57275391 C-40.53978544 0.52471991 -38.15501953 0.47622654 -35.77026367 0.42724609 C-32.32212668 0.35650768 -28.87395883 0.28747812 -25.42578125 0.21875 C-24.37731522 0.19687622 -23.32884918 0.17500244 -22.24861145 0.15246582 C-14.83162139 0.00689465 -7.41831985 -0.02370266 0 0 Z " fill="#100F20" transform="translate(1339,2484)"/>
<path d="M0 0 C1.0577211 -0.00315216 2.1154422 -0.00630432 3.20521545 -0.009552 C4.92399147 -0.00651566 4.92399147 -0.00651566 6.67749023 -0.00341797 C7.84867905 -0.00437469 9.01986786 -0.00533142 10.22654724 -0.00631714 C12.70555678 -0.00699855 15.1845681 -0.005147 17.66357422 -0.00097656 C21.47359187 0.00437698 25.28349188 -0.00092538 29.09350586 -0.00732422 C31.49650091 -0.00666352 33.89949589 -0.00538254 36.30249023 -0.00341797 C37.45036514 -0.0054422 38.59824005 -0.00746643 39.78089905 -0.009552 C41.36275246 -0.00482376 41.36275246 -0.00482376 42.9765625 0 C43.90984879 0.00079559 44.84313507 0.00159119 45.80470276 0.00241089 C47.92358398 0.12939453 47.92358398 0.12939453 48.92358398 1.12939453 C50.77250345 1.36303334 52.6284643 1.54243088 54.48608398 1.69189453 C55.49799805 1.77568359 56.50991211 1.85947266 57.55249023 1.94580078 C58.72618164 2.03667969 58.72618164 2.03667969 59.92358398 2.12939453 C59.92358398 2.78939453 59.92358398 3.44939453 59.92358398 4.12939453 C57.63159221 3.98876318 55.33999213 3.8417351 53.04858398 3.69189453 C51.77241211 3.61068359 50.49624023 3.52947266 49.18139648 3.44580078 C45.92358398 3.12939453 45.92358398 3.12939453 43.92358398 2.12939453 C42.53314414 2.02510559 41.13794171 1.98076416 39.74365234 1.96826172 C38.87771957 1.95865417 38.0117868 1.94904663 37.11961365 1.93914795 C36.1770723 1.93489807 35.23453094 1.93064819 34.26342773 1.92626953 C32.79662315 1.91771942 32.79662315 1.91771942 31.30018616 1.90899658 C29.21787602 1.8995282 27.13555077 1.89300534 25.05322266 1.88916016 C21.92574026 1.87959233 18.79895494 1.84864653 15.67163086 1.81689453 C3.67919751 1.75422152 -7.34009372 2.67349768 -19.07641602 5.12939453 C-21.40921635 5.46643776 -23.74245578 5.80047942 -26.07641602 6.12939453 C-27.69541436 6.60211266 -29.30329407 7.11707186 -30.88891602 7.69189453 C-34.88502846 9.12939453 -34.88502846 9.12939453 -37.07641602 9.12939453 C-37.07641602 8.13939453 -37.07641602 7.14939453 -37.07641602 6.12939453 C-35.02563477 5.90152995 -32.97485352 5.67366536 -30.92407227 5.44580078 C-29.06501373 5.31052839 -29.06501373 5.31052839 -28.07641602 4.12939453 C-26.54371707 3.84486483 -25.00072644 3.61521519 -23.45532227 3.41064453 C-22.52010742 3.28302734 -21.58489258 3.15541016 -20.62133789 3.02392578 C-19.63713867 2.89373047 -18.65293945 2.76353516 -17.63891602 2.62939453 C-15.70228798 2.37219607 -13.76606441 2.1119277 -11.83032227 1.84814453 C-10.5359021 1.67702148 -10.5359021 1.67702148 -9.21533203 1.50244141 C-0.60382459 0.0005143 -0.60382459 0.0005143 0 0 Z " fill="#454551" transform="translate(1278.076416015625,2033.87060546875)"/>
<path d="M0 0 C0.66 0.33 1.32 0.66 2 1 C2 6.94 2 12.88 2 19 C1.67 19 1.34 19 1 19 C1 23.29 1 27.58 1 32 C1.33 32 1.66 32 2 32 C2.33 41.57 2.66 51.14 3 61 C2.01 61.495 2.01 61.495 1 62 C0.93941406 60.85660156 0.87882812 59.71320312 0.81640625 58.53515625 C0.73201572 57.04425695 0.64736698 55.55337225 0.5625 54.0625 C0.52318359 53.30775391 0.48386719 52.55300781 0.44335938 51.77539062 C0.55961976 48.08055813 0.55961976 48.08055813 -1 45 C-1.10117824 42.43885426 -1.13968887 39.90531819 -1.1328125 37.34375 C-1.13376923 36.56745239 -1.13472595 35.79115479 -1.13571167 34.99133301 C-1.13639407 33.34024983 -1.13453563 31.689164 -1.13037109 30.03808594 C-1.12508115 27.53834795 -1.1302838 25.03879443 -1.13671875 22.5390625 C-1.13605685 20.93229128 -1.13477339 19.32552016 -1.1328125 17.71875 C-1.13483673 16.98088257 -1.13686096 16.24301514 -1.13894653 15.48278809 C-1.11596942 10.25751268 -0.64473177 5.18602512 0 0 Z " fill="#C5C4CA" transform="translate(1076,2237)"/>
<path d="M0 0 C0.66 0 1.32 0 2 0 C1.9292627 0.65162109 1.85852539 1.30324219 1.78564453 1.97460938 C0.94242444 10.68244992 0.84661336 19.32758022 0.86962891 28.06640625 C0.87505186 30.52349848 0.86961897 32.98041285 0.86328125 35.4375 C0.86394106 37.01041707 0.86522022 38.58333402 0.8671875 40.15625 C0.86516327 40.88541626 0.86313904 41.61458252 0.86105347 42.36584473 C0.87655451 45.71822925 0.95620378 48.79501698 2 52 C1.01 52 0.02 52 -1 52 C-1.02526739 44.75513449 -1.0428318 37.51028026 -1.05493164 30.26538086 C-1.05997356 27.79857967 -1.06680691 25.33178148 -1.07543945 22.86499023 C-1.08751125 19.32795471 -1.09322956 15.79095855 -1.09765625 12.25390625 C-1.10281754 11.14350479 -1.10797882 10.03310333 -1.11329651 8.88905334 C-1.11337204 7.86807053 -1.11344757 6.84708771 -1.11352539 5.79516602 C-1.115746 4.89137711 -1.11796661 3.9875882 -1.12025452 3.05641174 C-1 1 -1 1 0 0 Z " fill="#464652" transform="translate(1075,2234)"/>
<path d="M0 0 C0.99 0.33 1.98 0.66 3 1 C2.65066406 1.58007812 2.30132813 2.16015625 1.94140625 2.7578125 C-0.63029891 7.17269444 -2.59995505 10.79941563 -3 16 C-3.66 16 -4.32 16 -5 16 C-5.103125 16.804375 -5.20625 17.60875 -5.3125 18.4375 C-6.15100373 22.78247386 -7.52821659 26.83457527 -9 31 C-9.33 31 -9.66 31 -10 31 C-10.20140476 27.37471432 -9.85776765 25.13498292 -8 22 C-8.99 22.33 -9.98 22.66 -11 23 C-11 21.68 -11 20.36 -11 19 C-10.01 19 -9.02 19 -8 19 C-7.67 17.35 -7.34 15.7 -7 14 C-6.01 14.33 -5.02 14.66 -4 15 C-4 12.69 -4 10.38 -4 8 C-3.34 8 -2.68 8 -2 8 C-2 6.68 -2 5.36 -2 4 C-1.34 4 -0.68 4 0 4 C0 2.68 0 1.36 0 0 Z " fill="#3E3D4A" transform="translate(1095,2162)"/>
<path d="M0 0 C0.66 0 1.32 0 2 0 C1.67 6.27 1.34 12.54 1 19 C0.34 18.67 -0.32 18.34 -1 18 C-1.33 21.63 -1.66 25.26 -2 29 C-2.33 29 -2.66 29 -3 29 C-3.05413245 26.10391407 -3.09373641 23.20884805 -3.125 20.3125 C-3.14175781 19.49587891 -3.15851563 18.67925781 -3.17578125 17.83789062 C-3.21187311 13.38054533 -2.98185418 10.08382074 -1 6 C-0.62406934 4.0075675 -0.28020455 2.0081326 0 0 Z " fill="#131223" transform="translate(1078,2203)"/>
<path d="M0 0 C1.32 0.33 2.64 0.66 4 1 C3.45730469 1.47050781 2.91460938 1.94101563 2.35546875 2.42578125 C1.28232422 3.35970703 1.28232422 3.35970703 0.1875 4.3125 C-0.52019531 4.92738281 -1.22789063 5.54226562 -1.95703125 6.17578125 C-3.98244046 7.93276741 -3.98244046 7.93276741 -5.63671875 9.73046875 C-7 11 -7 11 -9 11 C-9 11.66 -9 12.32 -9 13 C-11.5 14.625 -11.5 14.625 -14 16 C-11.84682713 7.64989059 -11.84682713 7.64989059 -8.3125 4.9375 C-7.549375 4.628125 -6.78625 4.31875 -6 4 C-6 4.66 -6 5.32 -6 6 C-2.47618313 3.45395403 -2.47618313 3.45395403 0 0 Z " fill="#31303E" transform="translate(1153,2086)"/>
<path d="M0 0 C-2.8539161 10.42387797 -2.8539161 10.42387797 -6 15 C-6.33 15.66 -6.66 16.32 -7 17 C-7.66 17 -8.32 17 -9 17 C-9.12375 17.804375 -9.2475 18.60875 -9.375 19.4375 C-9.684375 20.7059375 -9.684375 20.7059375 -10 22 C-10.66 22.33 -11.32 22.66 -12 23 C-11.4140625 16.84765625 -11.4140625 16.84765625 -11 15 C-10.34 14.67 -9.68 14.34 -9 14 C-6.42878869 9.84725117 -4.8720739 5.79640644 -4 1 C-2 0 -2 0 0 0 Z " fill="#111020" transform="translate(1513,2342)"/>
<path d="M0 0 C0.66 0.33 1.32 0.66 2 1 C2 1.66 2 2.32 2 3 C0.65808594 3.05607422 0.65808594 3.05607422 -0.7109375 3.11328125 C-9.09535853 3.56325046 -9.09535853 3.56325046 -17.1875 5.625 C-22.58395493 7.48367915 -27.44032455 6.87728719 -33 6 C-33 5.67 -33 5.34 -33 5 C-31.78441406 4.86722656 -30.56882812 4.73445313 -29.31640625 4.59765625 C-27.73174516 4.41949909 -26.1471111 4.24110125 -24.5625 4.0625 C-23.35883789 3.93198242 -23.35883789 3.93198242 -22.13085938 3.79882812 C-18.24423336 3.69451606 -18.24423336 3.69451606 -15 2 C-11.37827258 1.67404453 -7.7554479 1.48619464 -4.125 1.28125 C-1.1350199 1.34864552 -1.1350199 1.34864552 0 0 Z " fill="#7D7C87" transform="translate(1348,2478)"/>
<path d="M0 0 C0.66 0 1.32 0 2 0 C1.58997722 15.74487472 1.58997722 15.74487472 -3 23 C-3.33 23 -3.66 23 -4 23 C-4 20.36 -4 17.72 -4 15 C-3.67 15 -3.34 15 -3 15 C-2.67 12.69 -2.34 10.38 -2 8 C-1.34 8 -0.68 8 0 8 C0 5.36 0 2.72 0 0 Z " fill="#0D0C1C" transform="translate(1521,2302)"/>
<path d="M0 0 C1.485 0.99 1.485 0.99 3 2 C3.43237305 4.88916016 3.43237305 4.88916016 3.51171875 8.5390625 C3.54716797 9.84101563 3.58261719 11.14296875 3.61914062 12.484375 C3.64224231 13.86457809 3.66502464 15.24478657 3.6875 16.625 C3.72066445 18.01305352 3.7551533 19.40107607 3.79101562 20.7890625 C3.87374115 24.19262707 3.94281257 27.5959259 4 31 C3.34 31.33 2.68 31.66 2 32 C1.93941406 30.85660156 1.87882812 29.71320312 1.81640625 28.53515625 C1.73201572 27.04425695 1.64736698 25.55337225 1.5625 24.0625 C1.52318359 23.30775391 1.48386719 22.55300781 1.44335938 21.77539062 C1.55961976 18.08055813 1.55961976 18.08055813 0 15 C-0.07313567 12.46950598 -0.09247527 9.96695163 -0.0625 7.4375 C-0.05798828 6.72658203 -0.05347656 6.01566406 -0.04882812 5.28320312 C-0.03700864 3.52209987 -0.01907263 1.76103964 0 0 Z " fill="#A6A5AD" transform="translate(1075,2267)"/>
<path d="M0 0 C0 0.99 0 1.98 0 3 C-0.56589844 3.26554687 -1.13179687 3.53109375 -1.71484375 3.8046875 C-2.81505859 4.33449219 -2.81505859 4.33449219 -3.9375 4.875 C-4.66839844 5.22304687 -5.39929687 5.57109375 -6.15234375 5.9296875 C-8.16332459 6.8684977 -8.16332459 6.8684977 -9 9 C-14.3139263 11.38210489 -18.20853178 12.36196676 -24 12 C-24 12.66 -24 13.32 -24 14 C-24.66 13.67 -25.32 13.34 -26 13 C-25.67 12.34 -25.34 11.68 -25 11 C-23.2421875 10.4296875 -23.2421875 10.4296875 -20.875 9.875 C-13.35881097 7.78838357 -6.76157184 3.79549566 0 0 Z " fill="#5C5B68" transform="translate(1411,2454)"/>
<path d="M0 0 C0.33 0 0.66 0 1 0 C1.14973506 9.71614177 0.69613269 19.31629705 0 29 C-2.10209857 25.84685215 -2.2434761 25.13896919 -2.1953125 21.55078125 C-2.18886719 20.70322266 -2.18242188 19.85566406 -2.17578125 18.98242188 C-2.15902344 18.10134766 -2.14226562 17.22027344 -2.125 16.3125 C-2.11597656 15.41982422 -2.10695313 14.52714844 -2.09765625 13.60742188 C-2.07409748 11.40467686 -2.04120329 9.20247412 -2 7 C-1.67 7 -1.34 7 -1 7 C-0.67 4.69 -0.34 2.38 0 0 Z " fill="#BEBDC5" transform="translate(1524,2255)"/>
<path d="M0 0 C1.65 0 3.3 0 5 0 C4.67 0.66 4.34 1.32 4 2 C3.34 2 2.68 2 2 2 C2 2.66 2 3.32 2 4 C1.360625 4.12375 0.72125 4.2475 0.0625 4.375 C-0.618125 4.58125 -1.29875 4.7875 -2 5 C-2.33 5.66 -2.66 6.32 -3 7 C-9.23529412 11 -9.23529412 11 -14 11 C-14 10.34 -14 9.68 -14 9 C-12.68 9 -11.36 9 -10 9 C-9.67 8.01 -9.34 7.02 -9 6 C-7.1875 4.90234375 -7.1875 4.90234375 -5 3.9375 C-1.8485304 2.67769923 -1.8485304 2.67769923 0 0 Z " fill="#131223" transform="translate(1412,2454)"/>
<path d="M0 0 C0.33 0 0.66 0 1 0 C1.04898437 0.84304687 1.09796875 1.68609375 1.1484375 2.5546875 C1.22320313 3.65039062 1.29796875 4.74609375 1.375 5.875 C1.44460938 6.96554688 1.51421875 8.05609375 1.5859375 9.1796875 C1.73253491 12.13046474 1.73253491 12.13046474 4 14 C4.85662706 19.05409964 5.10659282 23.88354455 5 29 C4.34 29 3.68 29 3 29 C2.86722656 28.01257812 2.73445313 27.02515625 2.59765625 26.0078125 C2.42105469 24.72648437 2.24445313 23.44515625 2.0625 22.125 C1.88847656 20.84882813 1.71445313 19.57265625 1.53515625 18.2578125 C1.18566773 15.12440546 1.18566773 15.12440546 0 13 C-0.07092842 10.7927077 -0.08415025 8.58332548 -0.0625 6.375 C-0.05347656 5.18648437 -0.04445313 3.99796875 -0.03515625 2.7734375 C-0.02355469 1.85820312 -0.01195312 0.94296875 0 0 Z " fill="#0D0C1D" transform="translate(1075,2288)"/>
<path d="M0 0 C0.66 0 1.32 0 2 0 C2 2.31 2 4.62 2 7 C2.66 7 3.32 7 4 7 C5.31626692 10.61973402 6 13.09567131 6 17 C5.01 17 4.02 17 3 17 C2.67 14.69 2.34 12.38 2 10 C1.34 10 0.68 10 0 10 C0 6.7 0 3.4 0 0 Z " fill="#0C0B1B" transform="translate(1081,2319)"/>
<path d="M0 0 C3.76428019 3.31087949 4.80132193 7.24690847 6 12 C6.1875 15.0625 6.1875 15.0625 6 17 C5.34 17.33 4.68 17.66 4 18 C2.68373308 14.38026598 2 11.90432869 2 8 C1.34 8 0.68 8 0 8 C0 5.36 0 2.72 0 0 Z " fill="#0C0B1A" transform="translate(1511,2175)"/>
<path d="M0 0 C6.46568686 0.33443208 9.44922643 1.33545709 14 6 C14 6.66 14 7.32 14 8 C11.6875 8.1875 11.6875 8.1875 9 8 C7.5625 6.6875 7.5625 6.6875 6 5 C4.02379014 3.95377125 2.0262871 2.94560065 0 2 C0 1.34 0 0.68 0 0 Z " fill="#141323" transform="translate(1403,2057)"/>
<path d="M0 0 C2.64 0 5.28 0 8 0 C6.46329027 3.07341945 4.04247405 3.27945994 0.875 4.4375 C-3.81137176 6.18006728 -8.42759811 7.97963637 -13 10 C-13 9.34 -13 8.68 -13 8 C-9.65119374 5.25780133 -6.32923704 3.13846219 -2 2.6875 C-1.34 2.790625 -0.68 2.89375 0 3 C0 2.01 0 1.02 0 0 Z " fill="#3C3B48" transform="translate(1216,2047)"/>
<path d="M0 0 C0.66 0.33 1.32 0.66 2 1 C0.625 3.5 0.625 3.5 -1 6 C-1.66 6 -2.32 6 -3 6 C-3.2475 6.78375 -3.495 7.5675 -3.75 8.375 C-5.15389099 11.32317108 -6.00675737 11.9024777 -9 13 C-9 11.35 -9 9.7 -9 8 C-8.01 7.67 -7.02 7.34 -6 7 C-6 6.01 -6 5.02 -6 4 C-4.68 4.33 -3.36 4.66 -2 5 C-1.34 3.35 -0.68 1.7 0 0 Z " fill="#2D2D3B" transform="translate(1120,2122)"/>
<path d="M0 0 C2.31 0 4.62 0 7 0 C7 0.66 7 1.32 7 2 C6.175 2.2475 5.35 2.495 4.5 2.75 C1.04793543 3.9828802 -1.97716572 5.51190907 -5.16796875 7.29296875 C-7 8 -7 8 -10 7 C-4.375 3 -4.375 3 -1 3 C-0.67 2.01 -0.34 1.02 0 0 Z " fill="#100F20" transform="translate(1209,2048)"/>
<path d="M0 0 C2.38564077 0.57584432 4.66682784 1.22227595 7 2 C7 2.99 7 3.98 7 5 C8.32 5.66 9.64 6.32 11 7 C11 7.66 11 8.32 11 9 C11.66 9 12.32 9 13 9 C12.67 9.66 12.34 10.32 12 11 C11.34 10.67 10.68 10.34 10 10 C10 9.34 10 8.68 10 8 C8.35 7.67 6.7 7.34 5 7 C5 6.34 5 5.68 5 5 C4.360625 4.731875 3.72125 4.46375 3.0625 4.1875 C1 3 1 3 0 0 Z " fill="#121122" transform="translate(1136,2418)"/>
<path d="M0 0 C0 3 0 3 -2 6 C-5.27740694 8.30304271 -8.03925073 9.43417868 -12 10 C-12 9.34 -12 8.68 -12 8 C-10.02559073 6.5368217 -8.06761129 5.19286936 -6 3.875 C-5.42765625 3.50246094 -4.8553125 3.12992188 -4.265625 2.74609375 C-2.84778218 1.82449592 -1.42439275 0.91144179 0 0 Z " fill="#121122" transform="translate(1430,2444)"/>
<path d="M0 0 C0.33 0 0.66 0 1 0 C1 2.31 1 4.62 1 7 C0.34 7 -0.32 7 -1 7 C-0.9484375 7.72574219 -0.896875 8.45148437 -0.84375 9.19921875 C-1.023203 12.41591386 -1.86039151 14.06615577 -3.5 16.8125 C-3.9640625 17.60269531 -4.428125 18.39289062 -4.90625 19.20703125 C-5.2671875 19.79871094 -5.628125 20.39039062 -6 21 C-6.66 20.67 -7.32 20.34 -8 20 C-7.67386719 19.39414063 -7.34773438 18.78828125 -7.01171875 18.1640625 C-3.9245352 12.24468402 -1.68951242 6.45586045 0 0 Z " fill="#5D5C67" transform="translate(1510,2336)"/>
<path d="M0 0 C3.40312738 1.05875074 6.01353231 2.00902154 9 4 C9 4.66 9 5.32 9 6 C9.598125 6.144375 10.19625 6.28875 10.8125 6.4375 C12.56150404 6.8872439 14.28677023 7.42892341 16 8 C16 8.66 16 9.32 16 10 C16.99 10.33 17.98 10.66 19 11 C18.01 11.495 18.01 11.495 17 12 C14.96855359 11.06553465 12.96466413 10.06775224 11 9 C11 8.34 11 7.68 11 7 C10.41734375 6.8865625 9.8346875 6.773125 9.234375 6.65625 C6.81581805 5.9459046 5.27328061 4.98719771 3.25 3.5 C2.63640625 3.0565625 2.0228125 2.613125 1.390625 2.15625 C0.93171875 1.7746875 0.4728125 1.393125 0 1 C0 0.67 0 0.34 0 0 Z " fill="#4E4E59" transform="translate(1172,2445)"/>
<path d="M0 0 C0.33 0.66 0.66 1.32 1 2 C-1.05962852 2.67548578 -3.12284322 3.34004312 -5.1875 4 C-6.33605469 4.37125 -7.48460937 4.7425 -8.66796875 5.125 C-11.64320812 5.90630553 -13.95283896 6.18363306 -17 6 C-15.6562585 3.31251699 -13.81577466 2.77330745 -11.12109375 1.6640625 C-7.48820787 0.52669491 -3.78402202 0.24883592 0 0 Z " fill="#0F0D1E" transform="translate(1238,2040)"/>
<path d="M0 0 C2.32695682 3.49043523 3.12649759 5.03734166 3.09765625 9.1328125 C3.09282227 10.34130859 3.09282227 10.34130859 3.08789062 11.57421875 C3.07951172 12.41597656 3.07113281 13.25773437 3.0625 14.125 C3.05798828 14.97449219 3.05347656 15.82398437 3.04882812 16.69921875 C3.03702874 18.79950909 3.01909306 20.8997633 3 23 C2.67 23 2.34 23 2 23 C1.66114962 20.47980028 1.32879665 17.95901484 1 15.4375 C0.90460938 14.73302734 0.80921875 14.02855469 0.7109375 13.30273438 C0.13333583 8.82632145 -0.09489383 4.51338762 0 0 Z " fill="#343341" transform="translate(1523,2230)"/>
<path d="M0 0 C0.33 0 0.66 0 1 0 C1.125 4.75 1.125 4.75 0 7 C-0.22467831 8.53668865 -0.40796805 10.07968054 -0.5625 11.625 C-0.64628906 12.44226562 -0.73007813 13.25953125 -0.81640625 14.1015625 C-0.87699219 14.72804688 -0.93757813 15.35453125 -1 16 C-1.66 16 -2.32 16 -3 16 C-3.37851209 10.06997733 -2.10575375 5.52760359 0 0 Z " fill="#2F2E3B" transform="translate(1514,2326)"/>
<path d="M0 0 C1.5 1.375 1.5 1.375 3 3 C3 3.66 3 4.32 3 5 C3.66 5 4.32 5 5 5 C5 7.97 5 10.94 5 14 C4.67 13.01 4.34 12.02 4 11 C3.34 11 2.68 11 2 11 C0.57741188 7.17679443 -0.24042276 4.08718695 0 0 Z " fill="#121122" transform="translate(1505,2161)"/>
<path d="M0 0 C0.66 0 1.32 0 2 0 C1.67 0.99 1.34 1.98 1 3 C-1.51171875 3.94921875 -1.51171875 3.94921875 -4.6875 4.6875 C-5.72261719 4.93886719 -6.75773437 5.19023437 -7.82421875 5.44921875 C-10.95387884 5.99200113 -13.83107515 6.09977125 -17 6 C-13.69513117 3.79675411 -11.23910486 3.25573063 -7.375 2.4375 C-3.37000416 1.88314231 -3.37000416 1.88314231 0 0 Z " fill="#5A5965" transform="translate(1370,2472)"/>
<path d="M0 0 C0.99 0 1.98 0 3 0 C2.35812082 5.13503344 1.31727753 9.9943454 0 15 C-0.33 15 -0.66 15 -1 15 C-1.02685412 12.68756208 -1.04632841 10.3750373 -1.0625 8.0625 C-1.07410156 6.77472656 -1.08570313 5.48695313 -1.09765625 4.16015625 C-1 1 -1 1 0 0 Z " fill="#3C3B48" transform="translate(1080,2200)"/>
<path d="M0 0 C3.20802508 1.60401254 3.63001669 4.80337227 5 8 C5.66 8.33 6.32 8.66 7 9 C7.73075648 11.3140622 8.40138258 13.64828869 9 16 C4.76069809 12.23173163 2.00165951 8.34521366 0 3 C0 2.01 0 1.02 0 0 Z " fill="#5A5965" transform="translate(1098,2359)"/>
<path d="M0 0 C2.30925485 2.44579177 2.99001814 3.59442134 3.07421875 7.015625 C2.94660156 8.08296875 2.81898437 9.1503125 2.6875 10.25 C2.50767578 11.86648437 2.50767578 11.86648437 2.32421875 13.515625 C2.21722656 14.33546875 2.11023437 15.1553125 2 16 C0 14 0 14 -0.1953125 10.7421875 C-0.17210937 9.46601563 -0.14890625 8.18984375 -0.125 6.875 C-0.10695313 5.59367187 -0.08890625 4.31234375 -0.0703125 2.9921875 C-0.04710937 2.00476562 -0.02390625 1.01734375 0 0 Z " fill="#0F0E20" transform="translate(1524,2219)"/>
<path d="M0 0 C0 0.66 0 1.32 0 2 C-5.52760359 4.10575375 -10.06997733 5.37851209 -16 5 C-5.43452381 -0.49404762 -5.43452381 -0.49404762 0 0 Z " fill="#0F0D1F" transform="translate(1389,2469)"/>
<path d="M0 0 C5.06398064 2.21689819 10.07895682 4.47638811 15 7 C11.97878489 7.97110486 9.99536737 8.13617383 7 7 C6.67 6.34 6.34 5.68 6 5 C4.02477154 3.95191959 2.02518491 2.9479589 0 2 C0 1.34 0 0.68 0 0 Z " fill="#4E4C5B" transform="translate(1191,2456)"/>
<path d="M0 0 C5.03985731 0.44469329 7.37634988 2.71343362 11 6 C10.67 6.99 10.34 7.98 10 9 C9.278125 8.21625 8.55625 7.4325 7.8125 6.625 C5.16700959 4.15587562 3.39626389 3.06739722 0 2 C0 1.34 0 0.68 0 0 Z " fill="#141323" transform="translate(1156,2436)"/>
<path d="M0 0 C0.75 1.75 0.75 1.75 1 4 C-1.05226666 6.76266666 -2.41531259 7.8405398 -5.75 8.75 C-6.86375 8.87375 -6.86375 8.87375 -8 9 C-7.04270084 7.87411986 -6.08412105 6.7493285 -5.125 5.625 C-4.59132813 4.99851562 -4.05765625 4.37203125 -3.5078125 3.7265625 C-2.38567993 2.44163349 -1.20628025 1.20628025 0 0 Z " fill="#121122" transform="translate(1455,2423)"/>
<path d="M0 0 C0 0.99 0 1.98 0 3 C1.32 3.33 2.64 3.66 4 4 C3.67 4.66 3.34 5.32 3 6 C1.53932801 5.54917531 0.08151968 5.08906463 -1.375 4.625 C-2.18710938 4.36976562 -2.99921875 4.11453125 -3.8359375 3.8515625 C-6 3 -6 3 -8 1 C-5.07175348 0.02391783 -3.04386724 -0.08226668 0 0 Z " fill="#2F2E3B" transform="translate(1369,2041)"/>
<path d="M0 0 C0.99 0.2165625 0.99 0.2165625 2 0.4375 C5.65599551 1.12299916 9.30622195 1.56175515 13 2 C13.33 2.99 13.66 3.98 14 5 C12.03951648 4.7451971 10.08159327 4.47063056 8.125 4.1875 C6.48917969 3.96126953 6.48917969 3.96126953 4.8203125 3.73046875 C2 3 2 3 0 0 Z " fill="#51505C" transform="translate(1346,2038)"/>
<path d="M0 0 C2.66666667 2.66666667 5.33333333 5.33333333 8 8 C7.67 8.66 7.34 9.32 7 10 C4.50175965 8.5023304 2.13995327 6.98441782 0 5 C-0.4375 2.1875 -0.4375 2.1875 0 0 Z " fill="#3A3848" transform="translate(1134,2411)"/>
<path d="M0 0 C0.66 0 1.32 0 2 0 C4.60018816 3.90028225 4.15085514 7.47434569 4 12 C0.67617413 7.66457495 -0.12018668 5.52858726 0 0 Z " fill="#0E0E1D" transform="translate(1087,2338)"/>
<path d="M0 0 C0.66 0.33 1.32 0.66 2 1 C2 2.65 2 4.3 2 6 C1.34 6 0.68 6 0 6 C0 7.32 0 8.64 0 10 C-0.66 10 -1.32 10 -2 10 C-2 11.65 -2 13.3 -2 15 C-2.33 15 -2.66 15 -3 15 C-3.25 8.375 -3.25 8.375 -1 5 C-0.61500109 3.34450469 -0.27206865 1.6777567 0 0 Z " fill="#0D0C1E" transform="translate(1093,2160)"/>
<path d="M0 0 C0.99 0.33 1.98 0.66 3 1 C3 1.66 3 2.32 3 3 C4.32 3 5.64 3 7 3 C7.66 4.65 8.32 6.3 9 8 C8.01 8 7.02 8 6 8 C6 7.34 6 6.68 6 6 C5.071875 5.9071875 5.071875 5.9071875 4.125 5.8125 C2 5 2 5 0.75 2.4375 C0.5025 1.633125 0.255 0.82875 0 0 Z " fill="#111022" transform="translate(1451,2090)"/>
<path d="M0 0 C2.31 0.66 4.62 1.32 7 2 C6.67 2.66 6.34 3.32 6 4 C7.98 6.97 7.98 6.97 10 10 C9.01 10.495 9.01 10.495 8 11 C6.85204994 9.5433323 5.70670581 8.08461063 4.5625 6.625 C3.60537109 5.40683594 3.60537109 5.40683594 2.62890625 4.1640625 C1 2 1 2 0 0 Z " fill="#373645" transform="translate(1467,2109)"/>
<path d="M0 0 C-0.99 1.485 -0.99 1.485 -2 3 C-4.8203125 3.29296875 -4.8203125 3.29296875 -8.125 3.1875 C-9.76855469 3.14689453 -9.76855469 3.14689453 -11.4453125 3.10546875 C-12.28835938 3.07066406 -13.13140625 3.03585938 -14 3 C-14 2.67 -14 2.34 -14 2 C-9.15758367 0.66416101 -5.06562383 -0.25328119 0 0 Z " fill="#0F0E1F" transform="translate(1365,2477)"/>
<path d="M0 0 C1.46300982 0.93018526 2.92025579 1.86944027 4.375 2.8125 C5.18710938 3.33457031 5.99921875 3.85664063 6.8359375 4.39453125 C9 6 9 6 11 9 C9.68 9.33 8.36 9.66 7 10 C6.401875 9.05125 5.80375 8.1025 5.1875 7.125 C3.18437474 3.86035803 3.18437474 3.86035803 0 2 C0 1.34 0 0.68 0 0 Z " fill="#3E3D4A" transform="translate(1161,2436)"/>
<path d="M0 0 C6.625 -0.125 6.625 -0.125 10 1 C10 1.66 10 2.32 10 3 C10.66 3.33 11.32 3.66 12 4 C10.68 4.33 9.36 4.66 8 5 C7.67 4.34 7.34 3.68 7 3 C4.67843403 2.59270772 2.3431213 2.25561323 0 2 C0 1.34 0 0.68 0 0 Z " fill="#100F20" transform="translate(1352,2038)"/>
<path d="M0 0 C2.09715785 3.14573677 2.52004559 5.01456251 3.125 8.6875 C3.29257813 9.68136719 3.46015625 10.67523437 3.6328125 11.69921875 C3.75398438 12.45847656 3.87515625 13.21773437 4 14 C3.01 14.495 3.01 14.495 2 15 C1.66048381 13.43883181 1.32867456 11.87598662 1 10.3125 C0.814375 9.44238281 0.62875 8.57226562 0.4375 7.67578125 C0.01027953 5.06287036 -0.07616201 2.64186962 0 0 Z " fill="#4F4D59" transform="translate(1079,2303)"/>
<path d="M0 0 C0.66 0 1.32 0 2 0 C2.92470553 4.71599818 3.22923777 7.67265609 1 12 C0.67 12 0.34 12 0 12 C0 8.04 0 4.08 0 0 Z " fill="#0D0C1E" transform="translate(1524,2287)"/>
<path d="M0 0 C0.33 0 0.66 0 1 0 C1.06058594 0.89203125 1.12117188 1.7840625 1.18359375 2.703125 C1.26738281 3.87359375 1.35117188 5.0440625 1.4375 6.25 C1.51871094 7.41015625 1.59992188 8.5703125 1.68359375 9.765625 C1.93247787 12.30977376 2.28114942 14.55953248 3 17 C2.01 17 1.02 17 0 17 C0 11.39 0 5.78 0 0 Z " fill="#3C3C49" transform="translate(1074,2269)"/>
<path d="M0 0 C0.66 0 1.32 0 2 0 C3.4216319 3.3171411 4.39009109 6.44219804 5 10 C3.0625 9.5 3.0625 9.5 1 8 C0.31209578 5.30341548 0.18053536 2.7982981 0 0 Z " fill="#161424" transform="translate(1493,2139)"/>
<path d="M0 0 C0.99 0.33 1.98 0.66 3 1 C2.01 1.33 1.02 1.66 0 2 C-0.309375 2.639375 -0.61875 3.27875 -0.9375 3.9375 C-2.2342338 6.45468915 -3.4221737 6.96886948 -6 8 C-6 7.01 -6 6.02 -6 5 C-5.34 5 -4.68 5 -4 5 C-4 4.34 -4 3.68 -4 3 C-2.1875 1.3125 -2.1875 1.3125 0 0 Z " fill="#0F0E20" transform="translate(1153,2084)"/>
<path d="M0 0 C0 0.66 0 1.32 0 2 C-1.32 2 -2.64 2 -4 2 C-4 2.66 -4 3.32 -4 4 C-4.66 4 -5.32 4 -6 4 C-6.33 4.66 -6.66 5.32 -7 6 C-7.99 6 -8.98 6 -10 6 C-9 3 -9 3 -6.125 1.3125 C-3 0 -3 0 0 0 Z " fill="#121121" transform="translate(1197,2057)"/>
<path d="M0 0 C0.33 1.32 0.66 2.64 1 4 C-0.32 4.33 -1.64 4.66 -3 5 C-3 6.65 -3 8.3 -3 10 C-4.32 9.01 -5.64 8.02 -7 7 C-6.01 6.67 -5.02 6.34 -4 6 C-2.90833725 4.06669397 -2.90833725 4.06669397 -2 2 C-1.34 1.34 -0.68 0.68 0 0 Z " fill="#41404E" transform="translate(1466,2410)"/>
<path d="M0 0 C0.66 0 1.32 0 2 0 C1.67 1.32 1.34 2.64 1 4 C0.34 4 -0.32 4 -1 4 C-1.33 5.32 -1.66 6.64 -2 8 C-3.32 7.67 -4.64 7.34 -6 7 C-5.04882866 5.8274869 -4.08882991 4.66212985 -3.125 3.5 C-2.59132813 2.8503125 -2.05765625 2.200625 -1.5078125 1.53125 C-0.76144531 0.77328125 -0.76144531 0.77328125 0 0 Z " fill="#110F1F" transform="translate(1475,2402)"/>
<path d="M0 0 C0.33 0 0.66 0 1 0 C1 3.63 1 7.26 1 11 C0.34 11 -0.32 11 -1 11 C-1.33 11.66 -1.66 12.32 -2 13 C-2 10.36 -2 7.72 -2 5 C-1.67 5 -1.34 5 -1 5 C-0.67 3.35 -0.34 1.7 0 0 Z " fill="#AAA9B4" transform="translate(1079,2215)"/>
<path d="M0 0 C0 3 0 3 -2 6 C-4.95264073 8.04413589 -6.36672806 9 -10 9 C-6.7 6.03 -3.4 3.06 0 0 Z " fill="#D5D4DC" transform="translate(1159,2084)"/>
<path d="M0 0 C-1.0625 1.5 -1.0625 1.5 -3 3 C-6.6875 3.1875 -6.6875 3.1875 -10 3 C-10 2.34 -10 1.68 -10 1 C-6.52674819 -0.1577506 -3.63932552 -0.06866652 0 0 Z " fill="#0E0D1C" transform="translate(1260,2035)"/>
<path d="M0 0 C-0.33 1.65 -0.66 3.3 -1 5 C-1.66 5 -2.32 5 -3 5 C-3.33 6.32 -3.66 7.64 -4 9 C-4.33 9 -4.66 9 -5 9 C-5.36666667 3.5 -5.36666667 3.5 -3.625 1.125 C-2 0 -2 0 0 0 Z " fill="#141324" transform="translate(1501,2366)"/>
<path d="M0 0 C2.0245738 1.93254772 3.42105792 3.63158688 5 6 C4.67 6.99 4.34 7.98 4 9 C2 7.875 2 7.875 0 6 C-0.25 2.8125 -0.25 2.8125 0 0 Z " fill="#151424" transform="translate(1478,2117)"/>
<path d="M0 0 C6.52307692 0.49230769 6.52307692 0.49230769 8.9375 3.0625 C9.288125 3.701875 9.63875 4.34125 10 5 C5.2482602 4.56802365 3.07999946 3.67230705 0 0 Z " fill="#110F21" transform="translate(1418,2066)"/>
<path d="M0 0 C0 0.66 0 1.32 0 2 C-0.99 2 -1.98 2 -3 2 C-3 2.99 -3 3.98 -3 5 C-4.65 5 -6.3 5 -8 5 C-8 4.34 -8 3.68 -8 3 C-5.04518508 0.25624329 -4.22528092 0 0 0 Z " fill="#141223" transform="translate(1186,2063)"/>
<path d="M0 0 C0.66 0.33 1.32 0.66 2 1 C-0.64 3.64 -3.28 6.28 -6 9 C-6.99 8.67 -7.98 8.34 -9 8 C-6.03 5.36 -3.06 2.72 0 0 Z " fill="#51505C" transform="translate(1454,2422)"/>
<path d="M0 0 C3 1 3 1 4.25 2.8125 C5.11637742 5.33943414 4.88492145 6.52221994 4 9 C0 4.5 0 4.5 0 0 Z " fill="#121022" transform="translate(1117,2393)"/>
<path d="M0 0 C0.33 0 0.66 0 1 0 C1 1.65 1 3.3 1 5 C0.01 5.33 -0.98 5.66 -2 6 C-2.33 7.65 -2.66 9.3 -3 11 C-3.33 11 -3.66 11 -4 11 C-4.56531239 6.1948447 -2.88324916 3.75696103 0 0 Z " fill="#0F0E1F" transform="translate(1488,2384)"/>
<path d="M0 0 C1.65 0 3.3 0 5 0 C5 0.66 5 1.32 5 2 C6.65 2.33 8.3 2.66 10 3 C10 3.33 10 3.66 10 4 C8.02 4.33 6.04 4.66 4 5 C3.67 4.34 3.34 3.68 3 3 C2.01 2.67 1.02 2.34 0 2 C0 1.34 0 0.68 0 0 Z " fill="#0E0D1D" transform="translate(1369,2042)"/>
<path d="M0 0 C0.99 0 1.98 0 3 0 C3 0.66 3 1.32 3 2 C4.423125 1.9690625 4.423125 1.9690625 5.875 1.9375 C9 2 9 2 11 3 C11 3.66 11 4.32 11 5 C9.53890937 4.74445946 8.08111904 4.46999628 6.625 4.1875 C5.81289062 4.03667969 5.00078125 3.88585938 4.1640625 3.73046875 C2 3 2 3 0 0 Z " fill="#4E4D59" transform="translate(1210,2466)"/>
<path d="M0 0 C0.66 0.33 1.32 0.66 2 1 C1.25 8.75 1.25 8.75 -1 11 C-2.26264601 6.70700357 -1.62950412 4.12168689 0 0 Z " fill="#0D0C1C" transform="translate(1515,2326)"/>
<path d="M0 0 C0.66 0.33 1.32 0.66 2 1 C0.71283353 2.00578589 -0.57988658 3.00446798 -1.875 4 C-2.95394531 4.8353125 -2.95394531 4.8353125 -4.0546875 5.6875 C-6 7 -6 7 -8 7 C-6.88424427 3.65273281 -6.48655378 3.37920252 -3.5625 1.75 C-2.386875 1.1725 -1.21125 0.595 0 0 Z " fill="#4A4958" transform="translate(1426,2445)"/>
<path d="M0 0 C1.5625 1.1875 1.5625 1.1875 3 3 C2.6875 5.6875 2.6875 5.6875 2 8 C1.34 8 0.68 8 0 8 C0 5.36 0 2.72 0 0 Z " fill="#141324" transform="translate(1511,2175)"/>
<path d="M0 0 C1.27875 0.103125 2.5575 0.20625 3.875 0.3125 C4.95394531 0.39951172 4.95394531 0.39951172 6.0546875 0.48828125 C8 1 8 1 10 4 C8.68 4.33 7.36 4.66 6 5 C5.67 4.34 5.34 3.68 5 3 C3.35636866 2.27840576 1.68949614 1.60648579 0 1 C0 0.67 0 0.34 0 0 Z " fill="#53535E" transform="translate(1380,2049)"/>
<path d="M0 0 C0 0.99 0 1.98 0 3 C-4.455 3.495 -4.455 3.495 -9 4 C-6.43425105 1.43425105 -3.68548192 0 0 0 Z " fill="#5A5A65" transform="translate(1383,2468)"/>
<path d="M0 0 C0.99 0.33 1.98 0.66 3 1 C1.75 3 1.75 3 0 5 C-1.32 5 -2.64 5 -4 5 C-4 4.34 -4 3.68 -4 3 C-2.1875 1.3125 -2.1875 1.3125 0 0 Z " fill="#111022" transform="translate(1440,2436)"/>
<path d="M0 0 C0.33 1.32 0.66 2.64 1 4 C0.01 4.33 -0.98 4.66 -2 5 C-2 5.99 -2 6.98 -2 8 C-2.66 8 -3.32 8 -4 8 C-3.40072174 4.64404172 -2.15377564 2.62198774 0 0 Z " fill="#0F0D20" transform="translate(1482,2393)"/>
<path d="M0 0 C0.66 0 1.32 0 2 0 C2 1.32 2 2.64 2 4 C1.34 4 0.68 4 0 4 C-0.66 5.32 -1.32 6.64 -2 8 C-2.33 6.68 -2.66 5.36 -3 4 C-2.34 3.67 -1.68 3.34 -1 3 C-0.67 2.01 -0.34 1.02 0 0 Z " fill="#0F0D1E" transform="translate(1120,2118)"/>
<path d="M0 0 C0.70125 0.144375 1.4025 0.28875 2.125 0.4375 C5.07556141 1.01478375 8.03270151 1.51695141 11 2 C11 2.33 11 2.66 11 3 C9.54257537 3.08096803 8.08387193 3.13917774 6.625 3.1875 C5.81289062 3.22230469 5.00078125 3.25710937 4.1640625 3.29296875 C3.44992187 3.19628906 2.73578125 3.09960938 2 3 C1.34 2.01 0.68 1.02 0 0 Z " fill="#0C0B1B" transform="translate(1237,2477)"/>
<path d="M0 0 C0.66 1.32 1.32 2.64 2 4 C0.68 5.32 -0.64 6.64 -2 8 C-2 6.02 -2 4.04 -2 2 C-1.34 2 -0.68 2 0 2 C0 1.34 0 0.68 0 0 Z " fill="#2A293A" transform="translate(1458,2418)"/>
<path d="M0 0 C0.99 0 1.98 0 3 0 C4.60355101 3.50776784 5.22036864 6.14354879 5 10 C2.35534962 6.8745041 1.15585285 3.91211733 0 0 Z " fill="#52515E" transform="translate(1502,2162)"/>
<path d="M0 0 C1.32 0 2.64 0 4 0 C4 0.99 4 1.98 4 3 C4.99 3 5.98 3 7 3 C7 3.66 7 4.32 7 5 C4.03824877 4.38722388 2.61941217 3.74627478 0 2 C0 1.34 0 0.68 0 0 Z " fill="#0F0E1D" transform="translate(1428,2072)"/>
</svg>
